<?xml version="1.0" encoding="UTF-8"?>
<svg xmlns="http://www.w3.org/2000/svg" version="1.1" viewBox="0 0 500 500">
  <defs>
    <style>
      .cls-1 {
        fill: #f8982c;
      }

      .cls-2 {
        fill: #fdf169;
      }
    </style>
  </defs>
  <!-- Generator: Adobe Illustrator 28.7.1, SVG Export Plug-In . SVG Version: 1.2.0 Build 142)  -->
  <g>
    <g id="Layer_1">
      <rect class="cls-1" x="155.06" y="151.04" width="43.11" height="181.79" rx="19.14" ry="19.14" transform="translate(-65.32 418.56) rotate(-90)"/>
      <path class="cls-2" d="M244.11,220.38h-80.66c-11.91,0-21.56,9.65-21.56,21.56h0c0,11.91,9.65,21.56,21.56,21.56h106s-25.35-43.11-25.35-43.11Z"/>
      <path class="cls-1" d="M446.38,82.38c-10.31-5.95-23.49-2.42-29.45,7.89l-111.51,193.15-111.51-193.15c-2.73-4.73-6.99-8.01-11.79-9.63-.13-.04-.26-.08-.39-.13-.5-.16-1.01-.3-1.52-.42-.23-.06-.46-.1-.7-.15-.42-.09-.84-.16-1.27-.22-.3-.04-.6-.08-.9-.11-.37-.04-.75-.07-1.12-.08-.34-.02-.68-.02-1.02-.02-.34,0-.68,0-1.02.02-.37.02-.75.05-1.12.08-.3.03-.6.06-.9.11-.43.06-.85.14-1.27.22-.23.05-.46.1-.7.15-.51.12-1.02.27-1.52.42-.13.04-.26.08-.39.13-4.8,1.62-9.06,4.9-11.79,9.63L26.27,315.86c-5.95,10.31-2.42,23.49,7.89,29.45,10.31,5.95,23.49,2.42,29.45-7.89l111.6-193.3,110.63,191.61c1.8,3.88,4.76,7.28,8.75,9.58h0c2.33,1.34,4.8,2.18,7.31,2.59.01,0,.03,0,.04,0,.57.09,1.14.16,1.72.2.2.02.39.03.59.04.39.02.78.03,1.17.03.39,0,.78,0,1.17-.03.2-.01.39-.03.59-.04.57-.05,1.15-.11,1.72-.2.01,0,.03,0,.04,0,2.5-.41,4.98-1.24,7.31-2.59h0c3.99-2.3,6.95-5.7,8.75-9.58l129.26-223.89c5.95-10.31,2.42-23.49-7.89-29.45Z"/>
      <rect class="cls-2" x="367.2" y="66.94" width="43.11" height="230.5" rx="21.56" ry="21.56" transform="translate(634.33 534.36) rotate(-150)"/>
    </g>
  </g>
</svg>