<?xml version="1.0" encoding="UTF-8"?>
<svg xmlns="http://www.w3.org/2000/svg" version="1.1" viewBox="0 0 98.4 84.2">
  <defs>
    <style>
      .cls-1 {
        fill: #ffcd5a;
      }
    </style>
  </defs>
  <!-- Generator: Adobe Illustrator 28.7.1, SVG Export Plug-In . SVG Version: 1.2.0 Build 142)  -->
  <g>
    <g id="Layer_1">
      <g id="Layer_2">
        <path class="cls-1" d="M23,16.2h55.6c2.8,0,5.1,2.3,5.1,5.1h0c0,2.8-2.3,5.1-5.1,5.1H23c-2.8,0-5.1-2.3-5.1-5.1h0c0-2.8,2.3-5.1,5.1-5.1Z"/>
        <path class="cls-1" d="M23,37h55.6c2.8,0,5.1,2.3,5.1,5.1h0c0,2.8-2.3,5.1-5.1,5.1H23c-2.8,0-5.1-2.3-5.1-5.1h0c0-2.8,2.3-5.1,5.1-5.1Z"/>
        <rect class="cls-1" x="17.8" y="57.8" width="65.9" height="10.2" rx="5.1" ry="5.1"/>
      </g>
    </g>
  </g>
</svg>